<svg width="300" height="1000" viewBox="0 0 300 1000" fill="none" xmlns="http://www.w3.org/2000/svg">
<g clip-path="url(#clip0_7_1431)">
<mask id="mask0_7_1431" style="mask-type:luminance" maskUnits="userSpaceOnUse" x="-37" y="0" width="375" height="1204">
<rect x="-37" width="375" height="1204" fill="white"/>
</mask>
<g mask="url(#mask0_7_1431)">
<g opacity="0.1">
<path d="M265 582.906V634.625H185V582.906L189.688 578.219H260.312L265 582.906Z" fill="#EFEFF4"/>
<path d="M265 582.906V634.625H225V578.219H260.312L265 582.906Z" fill="#DADAE5"/>
<path d="M185 564H265V582.906H185V564Z" fill="#474F54"/>
<path d="M225 564H265V582.906H225V564Z" fill="#32393F"/>
<path d="M194.531 571.188H199.219V575.875H194.531V571.188Z" fill="#9BFCFF"/>
<path d="M203.906 571.188H208.594V575.875H203.906V571.188Z" fill="#9BFCFF"/>
<path d="M213.281 571.188H217.969V575.875H213.281V571.188Z" fill="#9BFCFF"/>
<path d="M241.406 616.515V644H227.344V639.312H222.656V644H208.594V616.515L222.844 604.797H226.735L241.406 616.515Z" fill="#FF637B"/>
<path d="M199.219 592.281H250.781V596.969H199.219V592.281Z" fill="#DADAE5"/>
<path d="M225 592.281H250.781V596.969H225V592.281Z" fill="#C9C9D3"/>
<path d="M241.406 616.515V644H227.344V639.312H225V604.797H226.735L241.406 616.515Z" fill="#E63950"/>
<path d="M222.656 620.406H227.344V625.094H222.656V620.406Z" fill="#EFEFF4"/>
<path d="M225 620.406H227.344V625.094H225V620.406Z" fill="#DADAE5"/>
<path d="M247.641 621.015L244.546 624.485L225 607.14L205.453 624.485L202.359 621.015L225 600.86L247.641 621.015Z" fill="#676E74"/>
<path d="M225 600.86L247.641 621.015L244.547 624.485L225 607.14V600.86Z" fill="#474F54"/>
<path fill-rule="evenodd" clip-rule="evenodd" d="M226.469 464.531C230.359 458.719 236.922 455 243.906 455C255.531 455 265 464.625 265 476.25C265 487.875 255.531 497.5 243.906 497.5C236.922 497.5 230.359 493.781 226.469 487.969H215.469L211.766 484.266L207.078 488.953L202.391 484.266L197.656 489L185.516 476.25L185 475.687L196.766 464.531H226.469ZM241.562 476.25C241.562 480.141 244.703 483.281 248.594 483.281C252.485 483.281 255.625 480.141 255.625 476.25C255.625 472.359 252.485 469.219 248.594 469.219C244.703 469.219 241.562 472.359 241.562 476.25Z" fill="#FDBF00"/>
<path d="M185 502.188H227.5V506.875H185V502.188Z" fill="#676E74"/>
<path d="M232.188 502.188H250.938V506.875H232.188V502.188Z" fill="#676E74"/>
<path d="M255.625 502.188H265V506.875H255.625V502.188Z" fill="#676E74"/>
<path d="M185 511.562H199.062V516.25H185V511.562Z" fill="#676E74"/>
<path d="M203.75 511.562H236.875V516.25H203.75V511.562Z" fill="#676E74"/>
<path d="M241.562 511.562H265V516.25H241.562V511.562Z" fill="#676E74"/>
<path d="M185 530.312H189.688V535H185V530.312Z" fill="#676E74"/>
<path d="M194.375 530.312H236.875V535H194.375V530.312Z" fill="#676E74"/>
<path d="M241.562 530.312H265V535H241.562V530.312Z" fill="#676E74"/>
<path d="M185 520.938H217.969V525.625H185V520.938Z" fill="#676E74"/>
<path d="M222.656 520.938H265V525.625H222.656V520.938Z" fill="#676E74"/>
<path d="M265 476.25C265 487.875 255.531 497.5 243.906 497.5C236.922 497.5 230.359 493.781 226.469 487.969H215.469L211.766 484.266L207.078 488.953L202.391 484.266L197.656 489L185.516 476.25H241.562C241.562 480.141 244.703 483.281 248.594 483.281C252.485 483.281 255.625 480.141 255.625 476.25H265Z" fill="#FF9100"/>
<path d="M265 368.906V420.469H185V368.906L189.688 364.219H260.312L265 368.906Z" fill="#EFEFF4"/>
<path d="M265 368.906V420.469H225V364.219H260.312L265 368.906Z" fill="#DADAE5"/>
<path d="M185 350H265V368.906H185V350Z" fill="#474F54"/>
<path d="M225 350H265V368.906H225V350Z" fill="#32393F"/>
<path d="M194.531 357.188H199.219V361.875H194.531V357.188Z" fill="#9BFCFF"/>
<path d="M203.906 357.188H208.594V361.875H203.906V357.188Z" fill="#9BFCFF"/>
<path d="M213.281 357.188H217.969V361.875H213.281V357.188Z" fill="#9BFCFF"/>
<path d="M217.969 407.953H232.031V430H217.969V407.953Z" fill="#FDBF00"/>
<path d="M225 407.953H232.031V430H225V407.953Z" fill="#FF9100"/>
<path d="M225 378.281C215.953 378.281 208.594 385.641 208.594 394.688C208.594 403.734 215.953 411.094 225 411.094C234.047 411.094 241.406 403.734 241.406 394.688C241.406 385.641 234.047 378.281 225 378.281Z" fill="#676E74"/>
<path d="M241.406 394.688C241.406 403.734 234.047 411.094 225 411.094V378.281C234.047 378.281 241.406 385.641 241.406 394.688Z" fill="#474F54"/>
<path d="M225 382.969C218.531 382.969 213.281 388.219 213.281 394.688C213.281 401.156 218.531 406.406 225 406.406C231.469 406.406 236.719 401.156 236.719 394.688C236.719 388.219 231.469 382.969 225 382.969Z" fill="#9BFCFF"/>
<path d="M236.719 394.688C236.719 401.156 231.469 406.406 225 406.406V382.969C231.469 382.969 236.719 388.219 236.719 394.688Z" fill="#76E2F8"/>
<path d="M203.906 245.688H260.312V259.906H203.906V245.688Z" fill="#676E74"/>
<path d="M225 245.688H260.312V259.906H225V245.688Z" fill="#474F54"/>
<path d="M265 264.594V311.625H185V264.594L189.688 259.906H260.312L265 264.594Z" fill="#676E74"/>
<path d="M265 264.594V311.625H225V259.906H260.312L265 264.594Z" fill="#474F54"/>
<path fill-rule="evenodd" clip-rule="evenodd" d="M241.359 298.593C241.406 299.016 241.406 299.484 241.406 299.906C241.406 300.328 241.406 300.797 241.359 301.219L246.094 304.359L239.062 316.547L234.281 313.36C233.531 313.875 232.828 314.297 232.031 314.672V321H217.969V314.671C217.172 314.297 216.469 313.875 215.719 313.359L210.938 316.547L203.906 304.359L208.641 301.219C208.594 300.797 208.594 300.328 208.594 299.906C208.594 299.484 208.594 299.016 208.641 298.593L203.906 295.453L210.938 283.266L215.719 286.453C216.469 285.937 217.172 285.515 217.969 285.141V278.812H232.031V285.141C232.828 285.515 233.531 285.937 234.281 286.453L239.062 283.266L246.094 295.453L241.359 298.593ZM217.969 299.906C217.969 303.797 221.109 306.938 225 306.938C228.891 306.938 232.031 303.797 232.031 299.906C232.031 296.015 228.891 292.875 225 292.875C221.109 292.875 217.969 296.015 217.969 299.906Z" fill="#FDBF00"/>
<path d="M241.359 301.219L246.094 304.359L239.062 316.547L234.281 313.36C233.531 313.875 232.828 314.297 232.031 314.672V321H225V306.938C228.891 306.938 232.031 303.797 232.031 299.906C232.031 296.015 228.891 292.875 225 292.875V278.812H232.031V285.141C232.828 285.515 233.531 285.937 234.281 286.453L239.062 283.266L246.094 295.453L241.359 298.593C241.406 299.016 241.406 299.484 241.406 299.906C241.406 300.328 241.406 300.797 241.359 301.219V301.219Z" fill="#FF9100"/>
<path d="M265 255.219V264.594H185V241H212.625L217.313 255.219H265Z" fill="#FDBF00"/>
<path d="M225 255.219H265V264.594H225V255.219Z" fill="#FF9100"/>
<path d="M217.969 152.75V157.438H189.781L185 152.75V149.047L203.906 138.266L206.906 136.516L217.969 152.75Z" fill="#FDBF00"/>
<path d="M217.969 152.75V157.438H203.906V138.266L206.906 136.516L217.969 152.75Z" fill="#FF9100"/>
<path d="M224.203 202.125L208.594 190.406V195.094H199.219C196.641 195.094 194.375 192.984 194.375 190.406H189.688V199.781C189.688 204.938 194.062 209.156 199.219 209.156H208.594V214L224.203 202.125Z" fill="#9BFCFF"/>
<path d="M250.781 138.688H241.406V134L225.796 145.719L241.406 157.438V152.75H250.781C253.359 152.75 255.469 154.859 255.469 157.438H260.156V148.062C260.156 142.906 255.937 138.688 250.781 138.688Z" fill="#9BFCFF"/>
<path d="M250.781 152.75H246.094V138.688H250.781C255.938 138.688 260.156 142.906 260.156 148.062V157.438H255.469C255.469 154.859 253.359 152.75 250.781 152.75Z" fill="#76E2F8"/>
<path d="M222.656 143.375V185.719H185V152.75H213.281C208.125 152.75 203.906 148.531 203.906 143.375C203.906 141.453 204.469 139.672 205.453 138.172C207.187 135.688 210.047 134 213.281 134C218.438 134 222.656 138.219 222.656 143.375Z" fill="#EFEFF4"/>
<path d="M222.656 143.375V185.719H203.906V152.75H213.281C208.125 152.75 203.906 148.531 203.906 143.375C203.906 141.453 204.469 139.672 205.453 138.172C207.188 135.688 210.047 134 213.281 134C218.438 134 222.656 138.219 222.656 143.375Z" fill="#DADAE5"/>
<path d="M208.594 214V209.156H203.906V195.094H208.594V190.406L224.203 202.125L208.594 214Z" fill="#76E2F8"/>
<path d="M260.312 180.875V185.562H232.125L227.344 180.875V177.172L246.25 166.391L249.25 164.641L260.312 180.875Z" fill="#FDBF00"/>
<path d="M260.312 180.875V185.562H246.25V166.391L249.25 164.641L260.312 180.875Z" fill="#FF9100"/>
<path d="M265 171.5V213.844H227.344V180.875H255.625C250.469 180.875 246.25 176.656 246.25 171.5C246.25 169.578 246.813 167.797 247.797 166.297C249.531 163.813 252.391 162.125 255.625 162.125C260.781 162.125 265 166.344 265 171.5Z" fill="#EFEFF4"/>
<path d="M265 171.5V213.844H246.25V180.875H255.625C250.469 180.875 246.25 176.656 246.25 171.5C246.25 169.578 246.813 167.797 247.797 166.297C249.531 163.813 252.391 162.125 255.625 162.125C260.781 162.125 265 166.344 265 171.5Z" fill="#DADAE5"/>
<path d="M241.406 27V43.5625H236.719V31.6875H213.281V43.5625H208.594V27H241.406Z" fill="#474F54"/>
<path d="M241.406 27V43.5625H236.719V31.6875H225V27H241.406Z" fill="#32393F"/>
<path d="M260.312 59.9688V107H232.031L227.344 102.312H222.656L217.969 107H189.688V59.9688H260.312Z" fill="#474F54"/>
<path d="M260.312 59.9688V107H232.031L227.344 102.312H225V59.9688H260.312Z" fill="#32393F"/>
<path d="M265 46.7968V64.6562H185V46.7968L196.312 41.2188H253.844L265 46.7968Z" fill="#FF637B"/>
<path d="M265 46.7968V64.6562H225V41.2188H253.844L265 46.7968Z" fill="#E63950"/>
<path d="M222.656 69.3438H220.312C214.654 69.3438 209.92 73.3763 208.831 78.7188L216.211 83.4062L222.656 78.7188V69.3438Z" fill="#DADAE5"/>
<path d="M229.688 69.3438H227.344V78.7188L235.156 83.4062L241.169 78.7188C240.08 73.3763 235.346 69.3438 229.688 69.3438Z" fill="#C9C9D3"/>
<path d="M213.281 64.6562H199.219V50.5938H213.281V64.6562Z" fill="#FDBF00"/>
<path d="M250.781 64.6562H236.719V50.5938H250.781V64.6562Z" fill="#FF9100"/>
<path d="M241.406 81.0625V91.8907L232.031 97.4688L227.344 102.312H222.656L217.969 97.4688L208.594 91.8907V81.0625C208.594 80.266 208.688 79.4689 208.828 78.7188H241.172C241.312 79.4689 241.406 80.266 241.406 81.0625Z" fill="#EFEFF4"/>
<path d="M241.172 78.7188C241.312 79.4689 241.406 80.266 241.406 81.0625V91.8907L232.031 97.4688L227.344 102.312H225V78.7188H241.172Z" fill="#DADAE5"/>
<path d="M217.969 97.4688H232.031V107H217.969V97.4688Z" fill="#DADAE5"/>
<path d="M225 97.4688H232.031V107H225V97.4688Z" fill="#C9C9D3"/>
<path d="M212.643 717.434C208.069 712.86 200.645 712.86 196.071 717.434C194.513 718.992 193.419 720.947 192.922 723.102L185 745.077L206.81 737.189C208.997 736.724 211.019 735.63 212.643 734.006C217.217 729.432 217.217 722.008 212.643 717.434V717.434Z" fill="#FFDA2D"/>
<path d="M185 745.077L212.643 717.434C217.217 722.008 217.217 729.432 212.643 734.007C211.019 735.63 208.997 736.724 206.81 737.189L185 745.077Z" fill="#FDBF00"/>
<path d="M219.47 688.817L204.006 689.611L187.014 706.603L206.906 710.583L219.47 688.817Z" fill="#676E74"/>
<path d="M241.26 710.607L219.494 723.171L223.474 743.063L240.466 726.071L241.26 710.607Z" fill="#474F54"/>
<path d="M247.352 705.927C242.248 711.031 236.646 715.638 230.58 719.649L225.94 722.765L218.284 721.737L208.34 711.794L207.312 704.137L210.428 699.496C214.438 693.431 219.046 687.829 224.15 682.725C227.862 679.012 232.139 676.063 236.745 673.908L244.8 675.333L254.744 685.277L256.169 693.331C254.015 697.939 251.064 702.214 247.352 705.927Z" fill="#EFEFF4"/>
<path d="M247.352 705.927C242.248 711.031 236.646 715.638 230.58 719.649L225.94 722.765L218.284 721.737L213.312 716.766L249.772 680.305L254.744 685.277L256.169 693.331C254.015 697.939 251.064 702.214 247.352 705.927V705.927Z" fill="#DADAE5"/>
<path d="M236.514 693.563C233.763 690.812 229.321 690.812 226.57 693.563C223.819 696.314 223.819 700.756 226.57 703.507C229.321 706.259 233.763 706.258 236.514 703.507C239.265 700.756 239.265 696.315 236.514 693.563Z" fill="#64E1DC"/>
<path d="M256.401 670.362L261.685 665.078L265 668.392L259.715 673.677L256.401 670.362Z" fill="#FF637B"/>
<path d="M226.57 703.507L236.514 693.563C239.265 696.315 239.265 700.756 236.514 703.507C233.763 706.258 229.321 706.259 226.57 703.507Z" fill="#00C8C8"/>
<path d="M263.342 666.734L264.999 668.391L259.715 673.676L258.058 672.018L263.342 666.734Z" fill="#E63950"/>
<path d="M256.169 693.331L236.746 673.908C242.612 671.157 249.009 669.666 255.639 669.666H260.412V674.438C260.411 681.068 258.92 687.465 256.169 693.331V693.331Z" fill="#FF637B"/>
<path d="M256.169 693.331L246.458 683.619L260.412 669.666L260.411 674.438C260.411 681.068 258.92 687.465 256.169 693.331V693.331Z" fill="#E63950"/>
<path d="M225.941 722.765L217.985 728.068L202.009 712.092L207.313 704.137L225.941 722.765Z" fill="#FF637B"/>
<path d="M216.627 713.451L225.941 722.765L217.985 728.068L209.997 720.08L216.627 713.451Z" fill="#E63950"/>
<path d="M117 -7.09375V44.625H37V-7.09375L41.6875 -11.7812H112.312L117 -7.09375Z" fill="#EFEFF4"/>
<path d="M117 -7.09375V44.625H77V-11.7812H112.312L117 -7.09375Z" fill="#DADAE5"/>
<path d="M93.4062 26.5153V54H79.3438V49.3125H74.6562V54H60.5938V26.5153L74.8436 14.7965H78.7346L93.4062 26.5153Z" fill="#FF637B"/>
<path d="M51.2188 2.28125H102.781V6.96875H51.2188V2.28125Z" fill="#DADAE5"/>
<path d="M77 2.28125H102.781V6.96875H77V2.28125Z" fill="#C9C9D3"/>
<path d="M93.4062 26.5153V54H79.3438V49.3125H77V14.7965H78.7346L93.4062 26.5153Z" fill="#E63950"/>
<path d="M74.6562 30.4062H79.3438V35.0938H74.6562V30.4062Z" fill="#EFEFF4"/>
<path d="M77 30.4062H79.3438V35.0938H77V30.4062Z" fill="#DADAE5"/>
<path d="M99.6409 31.0154L96.5464 34.4846L76.9999 17.1403L57.4534 34.4846L54.3589 31.0154L76.9999 10.8597L99.6409 31.0154Z" fill="#676E74"/>
<path d="M77 10.8597L99.641 31.0154L96.5465 34.4846L77 17.1403V10.8597Z" fill="#474F54"/>
<path d="M69.9688 683.781H84.0312V698H69.9688V683.781Z" fill="#DADAE5"/>
<path d="M77 683.781H84.0312V698H77V683.781Z" fill="#C9C9D3"/>
<path d="M65.2812 676.75H88.7188V688.469H65.2812V676.75Z" fill="#EFEFF4"/>
<path d="M77 676.75H88.7188V688.469H77V676.75Z" fill="#DADAE5"/>
<path d="M93.2653 663.906C90.3594 666.297 88.7188 669.672 88.7188 673.187V676.75H65.2812V673.187C65.2812 669.625 63.734 666.297 61.1565 664.281C54.8284 659.359 51.2188 651.953 51.2188 643.938C51.2188 636.156 54.6874 628.844 60.7347 623.922C65.3752 620.172 71.0466 618 77 618C78.828 618 80.703 618.187 82.531 618.563C92.6561 620.672 100.625 629.125 102.406 639.391C104 648.766 100.625 657.953 93.2653 663.906V663.906Z" fill="#FFDA2D"/>
<path d="M93.2653 663.906C90.3594 666.297 88.7188 669.672 88.7188 673.187V676.75H77V618C78.828 618 80.703 618.187 82.531 618.563C92.6561 620.672 100.625 629.125 102.406 639.391C104 648.766 100.625 657.953 93.2653 663.906V663.906Z" fill="#FDBF00"/>
<path d="M60.5938 674.406H93.4062V679.094H60.5938V674.406Z" fill="#DADAE5"/>
<path d="M86.9443 630.678L90.2585 633.992L85.2854 638.966L81.9712 635.651L86.9443 630.678Z" fill="#FF9100"/>
<path d="M68.7145 648.908L72.0287 652.222L67.0549 657.196L63.7407 653.882L68.7145 648.908Z" fill="#FDBF00"/>
<path d="M74.6562 653.312H79.3438V660.344H74.6562V653.312Z" fill="#FDBF00"/>
<path d="M85.2854 648.908L90.2585 653.882L86.9443 657.196L81.9712 652.222L85.2854 648.908Z" fill="#FF9100"/>
<path d="M86.375 641.594H93.4062V646.281H86.375V641.594Z" fill="#FF9100"/>
<path d="M67.0549 630.678L72.0287 635.652L68.7145 638.966L63.7407 633.992L67.0549 630.678Z" fill="#FDBF00"/>
<path d="M60.5938 641.594H67.625V646.281H60.5938V641.594Z" fill="#FDBF00"/>
<path d="M74.6562 627.531H79.3438V634.562H74.6562V627.531Z" fill="#FDBF00"/>
<path d="M37 641.594H46.5312V646.281H37V641.594Z" fill="#FFDA2D"/>
<path d="M45.2312 636.513L38.0437 631.825L40.6438 627.925L47.8313 632.612L45.2312 636.513Z" fill="#FFDA2D"/>
<path d="M40.6438 659.95L38.0437 656.05L45.2312 651.362L47.8313 655.263L40.6438 659.95Z" fill="#FFDA2D"/>
<path d="M107.469 641.594H117V646.281H107.469V641.594Z" fill="#FDBF00"/>
<path d="M113.356 659.95L106.169 655.263L108.769 651.362L115.956 656.05L113.356 659.95Z" fill="#FDBF00"/>
<path d="M108.769 636.513L106.169 632.612L113.356 627.925L115.956 631.825L108.769 636.513Z" fill="#FDBF00"/>
<path d="M77 627.531H79.3438V634.562H77V627.531Z" fill="#FF9100"/>
<path d="M77 653.312H79.3438V660.344H77V653.312Z" fill="#FF9100"/>
<path d="M77 674.406H93.4062V679.094H77V674.406Z" fill="#C9C9D3"/>
<path d="M77 632.219C70.5315 632.219 65.2812 637.469 65.2812 643.938C65.2812 650.406 70.5315 655.656 77 655.656C83.4685 655.656 88.7188 650.406 88.7188 643.938C88.7188 637.469 83.4685 632.219 77 632.219Z" fill="#FDBF00"/>
<path d="M77 655.656V632.219C83.4685 632.219 88.7188 637.469 88.7188 643.938C88.7188 650.406 83.4685 655.656 77 655.656Z" fill="#FF9100"/>
<path d="M74.6562 641.594H79.3438V646.281H74.6562V641.594Z" fill="#FFDA2D"/>
<path d="M77 641.594H79.3438V646.281H77V641.594Z" fill="#FDBF00"/>
<path d="M98.25 555C98.25 558.063 97.5658 561.11 96.3921 563.736L105.545 572.584L113.468 571.498C115.718 566.507 117 560.83 117 555C117 549.17 115.718 543.493 113.468 538.502L105.074 537.63L96.3921 546.264C97.5658 548.89 98.25 551.937 98.25 555V555Z" fill="#FF641A"/>
<path d="M55.75 555C55.75 551.937 56.4342 548.89 57.6079 546.264L49.8088 538.032L40.5321 538.502C38.2823 543.493 37 549.17 37 555C37 560.83 38.2817 566.507 40.5321 571.498L48.9257 572.37L57.6079 563.736C56.4342 561.11 55.75 558.063 55.75 555Z" fill="#FF9100"/>
<path d="M95.3434 585.203L93.5154 591.484C88.5001 593.734 82.8123 595 76.9999 595C71.1875 595 65.5002 593.734 60.4844 591.484L59.0781 584.266L68.2651 574.375C70.8903 575.547 73.953 576.25 76.9999 576.25C80.0468 576.25 83.1095 575.547 85.7346 574.375L95.3434 585.203Z" fill="#FF9100"/>
<path d="M93.6095 528.594L85.7341 535.625C83.1096 534.453 80.0469 533.75 77 533.75C73.9525 533.75 70.8904 534.453 68.2653 535.625L59.9688 527.609L60.4845 518.516C65.5004 516.266 71.1876 515 77 515C82.8124 515 88.4996 516.266 93.5155 518.516L93.6095 528.594Z" fill="#FF9100"/>
<path d="M85.7347 535.625C83.1096 534.453 80.0469 533.75 77 533.75V515C82.8124 515 88.4996 516.266 93.5155 518.516L93.6095 528.594L85.7347 535.625Z" fill="#FF641A"/>
<path d="M95.3435 585.203L93.5155 591.484C88.5002 593.734 82.8124 595 77 595V576.25C80.0469 576.25 83.1096 575.547 85.7347 574.375L95.3435 585.203Z" fill="#FF641A"/>
<path d="M60.5035 518.531C52.0044 522.364 44.6405 529.39 40.5322 538.502L57.608 546.264C59.6942 541.597 63.8196 537.594 68.2654 535.608L60.5035 518.531Z" fill="#EFEFF4"/>
<path d="M96.3921 563.736C94.3181 568.375 90.2074 572.394 85.7354 574.392L93.4978 591.468C102.235 587.528 109.463 580.379 113.468 571.498L96.3921 563.736Z" fill="#DADAE5"/>
<path d="M57.608 563.736L40.5322 571.498C44.5099 580.322 51.7096 587.503 60.5023 591.468L68.2648 574.392C63.847 572.418 59.7076 568.433 57.608 563.736V563.736Z" fill="#EFEFF4"/>
<path d="M93.4978 518.532L85.7354 535.608C90.5175 537.745 94.4536 541.928 96.3921 546.264L113.468 538.502C109.521 529.748 102.363 522.529 93.4978 518.532V518.532Z" fill="#DADAE5"/>
<path d="M117 434.281L113.812 453.406C112.5 461.328 105.703 467.25 97.6409 467.25H58.25V434.281H117Z" fill="#EFEFF4"/>
<path d="M117 434.281L113.812 453.406C112.5 461.328 105.703 467.25 97.6409 467.25H86.375V434.281H117Z" fill="#C9C9D3"/>
<path d="M112.156 471.938V476.625H62.9375C59.0465 476.625 55.9062 473.484 55.9062 469.594V422.562C55.9062 421.25 54.8754 420.219 53.5625 420.219H37V415.531H53.5625C57.4535 415.531 60.5938 418.672 60.5938 422.562V469.594C60.5938 470.906 61.6246 471.938 62.9375 471.938H112.156Z" fill="#474F54"/>
<path d="M86.375 471.938H112.156V476.625H86.375V471.938Z" fill="#32393F"/>
<path d="M67.625 486C63.748 486 60.5938 482.846 60.5938 478.969C60.5938 475.092 63.748 471.938 67.625 471.938C71.502 471.938 74.6562 475.092 74.6562 478.969C74.6562 482.846 71.502 486 67.625 486Z" fill="#474F54"/>
<path d="M100.438 486C96.5605 486 93.4062 482.846 93.4062 478.969C93.4062 475.092 96.5605 471.938 100.438 471.938C104.314 471.938 107.469 475.092 107.469 478.969C107.469 482.846 104.314 486 100.438 486Z" fill="#32393F"/>
<path d="M67.625 476.625C66.3317 476.625 65.2812 477.675 65.2812 478.969C65.2812 480.262 66.3317 481.312 67.625 481.312C68.9183 481.312 69.9688 480.262 69.9688 478.969C69.9688 477.675 68.9183 476.625 67.625 476.625Z" fill="#EFEFF4"/>
<path d="M100.438 476.625C99.1442 476.625 98.0938 477.675 98.0938 478.969C98.0938 480.262 99.1442 481.312 100.438 481.312C101.731 481.312 102.781 480.262 102.781 478.969C102.781 477.675 101.731 476.625 100.438 476.625Z" fill="#DADAE5"/>
<path fill-rule="evenodd" clip-rule="evenodd" d="M102.734 425.937C102.781 426.359 102.781 426.828 102.781 427.25C102.781 427.672 102.781 428.141 102.734 428.562L107.469 431.703L100.438 443.891L95.656 440.703C94.9065 441.219 94.2028 441.641 93.4062 442.016V448.344H79.3438V442.015C78.5472 441.64 77.8435 441.219 77.094 440.703L72.3125 443.891L65.2812 431.703L70.0157 428.562C69.9688 428.141 69.9688 427.672 69.9688 427.25C69.9688 426.828 69.9688 426.359 70.0157 425.937L65.2812 422.797L72.3125 410.609L77.094 413.797C77.8435 413.281 78.5472 412.859 79.3438 412.484V406H93.4062V412.484C94.2028 412.859 94.9065 413.281 95.656 413.797L100.438 410.609L107.469 422.797L102.734 425.937ZM79.3438 427.25C79.3438 431.14 82.484 434.281 86.375 434.281C90.266 434.281 93.4062 431.14 93.4062 427.25C93.4062 423.359 90.266 420.219 86.375 420.219C82.484 420.219 79.3438 423.359 79.3438 427.25Z" fill="#FDBF00"/>
<path d="M102.734 428.562L107.469 431.703L100.438 443.891L95.656 440.703C94.9065 441.219 94.2028 441.641 93.4062 442.016V448.344H86.375V434.281C90.266 434.281 93.4062 431.14 93.4062 427.25C93.4062 423.359 90.266 420.219 86.375 420.219V406H93.4062V412.484C94.2028 412.859 94.9065 413.281 95.656 413.797L100.438 410.609L107.469 422.797L102.734 425.937C102.781 426.359 102.781 426.828 102.781 427.25C102.781 427.672 102.781 428.141 102.734 428.562V428.562Z" fill="#FF9100"/>
<path d="M107.623 322.514V364.7H69.2333L63.0931 376.981L56.9524 364.7H37V322.514H107.623Z" fill="#64E1DC"/>
<path d="M72.4675 322.514H107.623V364.7H72.4675V322.514Z" fill="#00C8C8"/>
<path d="M46.375 341.264H60.7494V345.951H46.375V341.264Z" fill="#EFEFF4"/>
<path d="M46.375 331.889H65.4369V336.576H46.375V331.889Z" fill="#EFEFF4"/>
<path d="M46.375 350.638H98.2482V355.326H46.375V350.638Z" fill="#EFEFF4"/>
<path d="M110.371 315.65L82.4829 343.538H75.8539L72.5391 340.224V333.595L100.428 305.706H107.057L110.371 309.021V315.65Z" fill="#FDBF00"/>
<path d="M110.371 315.65L82.4828 343.538H75.8538L74.196 341.881L108.714 307.364L110.371 309.021V315.65Z" fill="#FF9100"/>
<path d="M82.4828 343.538L67.78 348.297L72.5389 333.595L82.4828 343.538Z" fill="#FED2A4"/>
<path d="M77.5109 338.567L82.4828 343.538L67.78 348.297L77.5109 338.567Z" fill="#FFBD86"/>
<path d="M100.427 305.707L107.056 299.078L117 309.021L110.37 315.65L100.427 305.707Z" fill="#676E74"/>
<path d="M105.399 310.678L112.027 304.049L116.999 309.021L110.37 315.65L105.399 310.678Z" fill="#474F54"/>
<path d="M72.4675 350.638H98.2482V355.326H72.4675V350.638Z" fill="#DADAE5"/>
<path fill-rule="evenodd" clip-rule="evenodd" d="M88.7188 197.031V218.281L93.4062 222.969L88.7188 227.656V234.688C88.7188 237.734 86.7504 240.359 84.0312 241.297C83.2811 241.578 82.531 241.719 81.6875 241.719H58.25C54.359 241.719 51.2188 238.578 51.2188 234.688V197.031C51.2188 193.14 54.359 190 58.25 190H81.6875C82.531 190 83.2811 190.141 84.0312 190.422C86.7504 191.359 88.7188 193.984 88.7188 197.031ZM74.6562 223.156L79.3438 218.281V199.375H60.5938V232.344H79.3438V227.656L74.6562 223.156Z" fill="#474F54"/>
<path d="M93.4062 222.969L88.7188 227.656V234.688C88.7188 237.734 86.7504 240.359 84.0312 241.297V190.422C86.7504 191.359 88.7188 193.984 88.7188 197.031V218.281L93.4062 222.969Z" fill="#32393F"/>
<path d="M37 227.656H46.5312V232.344H37V227.656Z" fill="#9BFCFF"/>
<path d="M45.2312 222.575L38.0437 217.888L40.6438 213.987L47.8313 218.675L45.2312 222.575Z" fill="#9BFCFF"/>
<path d="M40.6438 246.013L38.0437 242.112L45.2312 237.425L47.8313 241.325L40.6438 246.013Z" fill="#9BFCFF"/>
<path d="M107.469 227.656H117V232.344H107.469V227.656Z" fill="#76E2F8"/>
<path d="M108.769 222.575L106.169 218.675L113.356 213.987L115.956 217.888L108.769 222.575Z" fill="#76E2F8"/>
<path d="M113.356 246.013L106.169 241.325L108.769 237.425L115.956 242.112L113.356 246.013Z" fill="#76E2F8"/>
<path d="M102.781 225.312V262.969C102.781 266.859 99.641 270 95.75 270H72.3125C68.4215 270 65.2812 266.859 65.2812 262.969V225.312C65.2812 221.422 68.4215 218.281 72.3125 218.281H79.3438V227.656H74.6562V260.625H93.4062V227.656H88.7188V218.281H95.75C99.641 218.281 102.781 221.422 102.781 225.312Z" fill="#FF9100"/>
<path d="M102.781 225.312V262.969C102.781 266.859 99.641 270 95.75 270H84.0312V260.625H93.4062V227.656H88.7188V218.281H95.75C99.641 218.281 102.781 221.422 102.781 225.312Z" fill="#FF641A"/>
<path d="M74.6562 94.875H79.3438V109.172H74.6562V94.875Z" fill="#9BFCFF"/>
<path d="M58.7694 101.455L69.2821 111.967L65.9679 115.281L55.4558 104.769L58.7694 101.455Z" fill="#9BFCFF"/>
<path d="M95.2299 101.455L98.5441 104.769L89.2747 114.039L85.9604 110.725L95.2299 101.455Z" fill="#76E2F8"/>
<path d="M74.6562 132.375H79.3438V151.281H74.6562V132.375Z" fill="#9BFCFF"/>
<path d="M65.9679 130.717L69.2821 134.031L58.7694 144.544L55.4558 141.23L65.9679 130.717Z" fill="#9BFCFF"/>
<path d="M48.875 120.656H58.6553V125.344H48.875V120.656Z" fill="#9BFCFF"/>
<path d="M95.3447 120.656H105.125V125.344H95.3447V120.656Z" fill="#76E2F8"/>
<path d="M88.032 130.717L98.5447 141.23L95.2305 144.544L84.7178 134.031L88.032 130.717Z" fill="#76E2F8"/>
<path d="M77 94.875H79.3438V109.172H77V94.875Z" fill="#76E2F8"/>
<path d="M77 132.375H79.3438V151.281H77V132.375Z" fill="#76E2F8"/>
<path d="M92.8905 117C91.2499 110.906 85.7659 106.594 79.3438 106.594C78.5472 106.594 77.7501 106.641 77 106.828C73.8127 107.344 70.9062 108.938 68.7499 111.375C64.9065 110.672 61.2499 113.484 60.6877 117.188C57.7812 118.828 55.9062 121.922 55.9062 125.344C55.9062 130.5 60.125 134.719 65.2812 134.719H88.7188C93.875 134.719 98.0938 130.5 98.0938 125.344C98.0938 121.734 96.0314 118.547 92.8905 117V117Z" fill="#EFEFF4"/>
<path d="M98.0938 125.344C98.0938 130.5 93.875 134.719 88.7188 134.719H77V106.828C77.7501 106.641 78.5472 106.594 79.3438 106.594C85.7659 106.594 91.2499 110.906 92.8905 117C96.0314 118.547 98.0938 121.734 98.0938 125.344Z" fill="#DADAE5"/>
<path d="M95.2306 151.173C92.4883 148.431 92.4883 143.972 95.2306 141.231C97.9723 138.488 102.431 138.488 105.173 141.231C107.915 143.972 107.915 148.431 105.173 151.173C102.434 153.912 97.9723 153.915 95.2306 151.173Z" fill="#76E2F8"/>
<path d="M48.8268 104.769C46.0851 102.028 46.0851 97.5691 48.8268 94.8268C51.5691 92.0851 56.0277 92.0851 58.7694 94.8268C61.5117 97.5691 61.5117 102.028 58.7694 104.769C56.0302 107.509 51.5691 107.512 48.8268 104.769Z" fill="#9BFCFF"/>
<path d="M48.8268 151.173C46.0851 148.431 46.0851 143.972 48.8268 141.231C51.5691 138.488 56.0277 138.488 58.7694 141.231C61.5117 143.972 61.5117 148.431 58.7694 151.173C56.0302 153.912 51.5691 153.915 48.8268 151.173Z" fill="#9BFCFF"/>
<path d="M95.2306 104.769C92.4883 102.028 92.4883 97.5691 95.2306 94.8268C97.9723 92.0851 102.431 92.0851 105.173 94.8268C107.915 97.5691 107.915 102.028 105.173 104.769C102.434 107.509 97.9723 107.512 95.2306 104.769Z" fill="#76E2F8"/>
<path d="M77 148.938C73.109 148.938 69.9688 152.078 69.9688 155.969C69.9688 159.859 73.109 163 77 163C80.891 163 84.0312 159.859 84.0312 155.969C84.0312 152.078 80.891 148.938 77 148.938Z" fill="#9BFCFF"/>
<path d="M44.1875 130.031C40.3105 130.031 37 126.877 37 123C37 119.123 40.3105 115.969 44.1875 115.969C48.0645 115.969 51.2188 119.123 51.2188 123C51.2188 126.877 48.0645 130.031 44.1875 130.031Z" fill="#9BFCFF"/>
<path d="M109.812 130.031C105.936 130.031 102.781 126.877 102.781 123C102.781 119.123 105.936 115.969 109.812 115.969C113.689 115.969 117 119.123 117 123C117 126.877 113.689 130.031 109.812 130.031Z" fill="#76E2F8"/>
<path d="M84.0312 90.1875C84.0312 94.0785 80.891 97.2188 77 97.2188C73.109 97.2188 69.9688 94.0785 69.9688 90.1875C69.9688 86.2965 73.109 83 77 83C80.891 83 84.0312 86.2965 84.0312 90.1875Z" fill="#9BFCFF"/>
<path d="M84.0312 155.969C84.0312 159.859 80.891 163 77 163V148.938C80.891 148.938 84.0312 152.078 84.0312 155.969Z" fill="#76E2F8"/>
<path d="M77 97.2188V83C80.891 83 84.0312 86.2965 84.0312 90.1875C84.0312 94.0785 80.891 97.2188 77 97.2188Z" fill="#76E2F8"/>
<path d="M108.703 794.063L115.641 801H91.0625C76.859 801 65.2812 789.266 65.2812 775.062C65.2812 773.094 65.5156 771.125 65.9374 769.25L85.2501 749.937C87.1251 749.516 89.0935 749.281 91.0625 749.281C105.266 749.281 117 760.859 117 775.062C117 782.281 114 789.187 108.703 794.063Z" fill="#64E1DC"/>
<path d="M108.703 794.063L115.641 801H91.0625V749.281C105.266 749.281 117 760.859 117 775.062C117 782.281 114 789.187 108.703 794.063Z" fill="#00C8C8"/>
<path d="M79.3438 772.719H102.781V777.406H79.3438V772.719Z" fill="#DADAE5"/>
<path d="M84.0312 782.094H98.0938V786.781H84.0312V782.094Z" fill="#DADAE5"/>
<path d="M84.0312 763.344H98.0938V768.031H84.0312V763.344Z" fill="#DADAE5"/>
<path d="M91.0625 763.344H98.0938V768.031H91.0625V763.344Z" fill="#C9C9D3"/>
<path d="M91.0625 782.094H98.0938V786.781H91.0625V782.094Z" fill="#C9C9D3"/>
<path d="M91.0625 772.719H102.781V777.406H91.0625V772.719Z" fill="#C9C9D3"/>
<path d="M62.9375 721C48.734 721 37 732.734 37 746.938C37 754.156 39.9999 760.906 45.2971 765.781L38.3593 772.719H62.9375C77.141 772.719 88.7188 761.141 88.7188 746.938C88.7188 732.734 77.141 721 62.9375 721Z" fill="#FDBF00"/>
<path d="M88.7188 746.938C88.7188 761.141 77.141 772.719 62.9375 772.719V721C77.141 721 88.7188 732.734 88.7188 746.938Z" fill="#FF9100"/>
<path d="M51.2188 744.594H74.6562V749.281H51.2188V744.594Z" fill="#EFEFF4"/>
<path d="M55.9062 753.969H69.9688V758.656H55.9062V753.969Z" fill="#EFEFF4"/>
<path d="M55.9062 735.219H69.9688V739.906H55.9062V735.219Z" fill="#EFEFF4"/>
<path d="M62.9375 735.219H69.9688V739.906H62.9375V735.219Z" fill="#DADAE5"/>
<path d="M62.9375 753.969H69.9688V758.656H62.9375V753.969Z" fill="#DADAE5"/>
<path d="M62.9375 744.594H74.6562V749.281H62.9375V744.594Z" fill="#DADAE5"/>
</g>
<g opacity="0.1">
<path d="M54.2188 988.531H49.5312V979.156C49.5312 969.77 53.7634 961.047 61.1426 955.222L64.0448 958.902C57.8009 963.83 54.2188 971.214 54.2188 979.156V988.531Z" fill="#676E74"/>
<path d="M103.438 1009.62H84.6875V1004.94H103.438C104.731 1004.94 105.781 1003.89 105.781 1002.59V979.156C105.781 971.212 102.199 963.828 95.9552 958.902L98.8574 955.222C106.237 961.042 110.469 969.767 110.469 979.156V1002.59C110.469 1006.47 107.314 1009.62 103.438 1009.62Z" fill="#474F54"/>
<path d="M102.219 951.922C95.9846 946.812 88.1093 944 80.0001 944C71.891 944 64.0156 946.812 57.7815 951.922L55.8125 953.562L65.7032 963.5L67.3439 962.281C71.0005 959.516 75.5 958.156 80.0001 958.156C84.5002 958.156 88.9998 959.516 92.6564 962.281L94.297 963.5L104.188 953.562L102.219 951.922Z" fill="#FF9100"/>
<path d="M51.875 976.812C45.4138 976.812 40 982.07 40 988.531C40 994.992 45.4138 1000.25 51.875 1000.25H54.2188L58.9062 996.295V980.475L54.2188 976.812H51.875Z" fill="#FF9100"/>
<path d="M120 988.531C120 982.07 114.586 976.812 108.125 976.812H105.781L101.094 981.793V996.148L105.781 1000.25H108.125C114.586 1000.25 120 994.992 120 988.531Z" fill="#FF641A"/>
<path d="M104.188 953.562L94.2969 963.5L92.6562 962.281C88.9996 959.516 84.5001 958.156 80 958.156V944C88.1091 944 95.9845 946.812 102.219 951.922L104.188 953.562Z" fill="#FF641A"/>
<path d="M96.4062 976.812H105.781V1000.25H96.4062V976.812Z" fill="#474F54"/>
<path d="M54.2188 976.812H63.5938V1000.25H54.2188V976.812Z" fill="#676E74"/>
<path fill-rule="evenodd" clip-rule="evenodd" d="M91.7188 844.031V865.281L96.4062 869.969L91.7188 874.656V881.688C91.7188 884.734 89.7504 887.359 87.0312 888.297C86.2811 888.578 85.531 888.719 84.6875 888.719H61.25C57.359 888.719 54.2188 885.578 54.2188 881.688V844.031C54.2188 840.14 57.359 837 61.25 837H84.6875C85.531 837 86.2811 837.141 87.0312 837.422C89.7504 838.359 91.7188 840.984 91.7188 844.031ZM77.6562 870.156L82.3438 865.281V846.375H63.5938V879.344H82.3438V874.656L77.6562 870.156Z" fill="#474F54"/>
<path d="M96.4062 869.969L91.7188 874.656V881.688C91.7188 884.734 89.7504 887.359 87.0312 888.297V837.422C89.7504 838.359 91.7188 840.984 91.7188 844.031V865.281L96.4062 869.969Z" fill="#32393F"/>
<path d="M40 874.656H49.5312V879.344H40V874.656Z" fill="#9BFCFF"/>
<path d="M48.2312 869.575L41.0437 864.888L43.6438 860.987L50.8313 865.675L48.2312 869.575Z" fill="#9BFCFF"/>
<path d="M43.6438 893.013L41.0437 889.112L48.2312 884.425L50.8313 888.325L43.6438 893.013Z" fill="#9BFCFF"/>
<path d="M110.469 874.656H120V879.344H110.469V874.656Z" fill="#76E2F8"/>
<path d="M111.769 869.575L109.169 865.675L116.356 860.987L118.956 864.888L111.769 869.575Z" fill="#76E2F8"/>
<path d="M116.356 893.013L109.169 888.325L111.769 884.425L118.956 889.112L116.356 893.013Z" fill="#76E2F8"/>
<path d="M105.781 872.312V909.969C105.781 913.859 102.641 917 98.75 917H75.3125C71.4215 917 68.2812 913.859 68.2812 909.969V872.312C68.2812 868.422 71.4215 865.281 75.3125 865.281H82.3438V874.656H77.6562V907.625H96.4062V874.656H91.7188V865.281H98.75C102.641 865.281 105.781 868.422 105.781 872.312Z" fill="#FF9100"/>
<path d="M105.781 872.312V909.969C105.781 913.859 102.641 917 98.75 917H87.0312V907.625H96.4062V874.656H91.7188V865.281H98.75C102.641 865.281 105.781 868.422 105.781 872.312Z" fill="#FF641A"/>
<path d="M268 909.906V961.625H188V909.906L192.688 905.219H263.312L268 909.906Z" fill="#EFEFF4"/>
<path d="M268 909.906V961.625H228V905.219H263.312L268 909.906Z" fill="#DADAE5"/>
<path d="M188 891H268V909.906H188V891Z" fill="#474F54"/>
<path d="M228 891H268V909.906H228V891Z" fill="#32393F"/>
<path d="M197.531 898.188H202.219V902.875H197.531V898.188Z" fill="#9BFCFF"/>
<path d="M206.906 898.188H211.594V902.875H206.906V898.188Z" fill="#9BFCFF"/>
<path d="M216.281 898.188H220.969V902.875H216.281V898.188Z" fill="#9BFCFF"/>
<path d="M244.406 943.515V971H230.344V966.312H225.656V971H211.594V943.515L225.844 931.797H229.735L244.406 943.515Z" fill="#FF637B"/>
<path d="M202.219 919.281H253.781V923.969H202.219V919.281Z" fill="#DADAE5"/>
<path d="M228 919.281H253.781V923.969H228V919.281Z" fill="#C9C9D3"/>
<path d="M244.406 943.515V971H230.344V966.312H228V931.797H229.735L244.406 943.515Z" fill="#E63950"/>
<path d="M225.656 947.406H230.344V952.094H225.656V947.406Z" fill="#EFEFF4"/>
<path d="M228 947.406H230.344V952.094H228V947.406Z" fill="#DADAE5"/>
<path d="M250.641 948.015L247.546 951.485L228 934.14L208.453 951.485L205.359 948.015L228 927.86L250.641 948.015Z" fill="#676E74"/>
<path d="M228 927.86L250.641 948.015L247.547 951.485L228 934.14V927.86Z" fill="#474F54"/>
<path d="M268 810.125V862H188V810.125L192.688 805.438H263.312L268 810.125Z" fill="#EFEFF4"/>
<path d="M268 810.125V862H228V805.438H263.312L268 810.125Z" fill="#DADAE5"/>
<path d="M268 791.375V810.125H188V791.375H197.672L199.969 789.031L202.453 791.375H221.11L223.172 789.031L225.891 791.375H244.547L246.891 789.031L249.328 791.375H268Z" fill="#FF9100"/>
<path d="M268 791.375V810.125H228V791.375H244.547L246.891 789.031L249.328 791.375H268Z" fill="#FF641A"/>
<path d="M202.219 819.656H216.281V824.344H202.219V819.656Z" fill="#64E1DC"/>
<path d="M220.969 819.656H235.031V824.344H220.969V819.656Z" fill="#64E1DC"/>
<path d="M239.719 819.656H253.781V824.344H239.719V819.656Z" fill="#00C8C8"/>
<path d="M202.219 829.031H216.281V833.719H202.219V829.031Z" fill="#64E1DC"/>
<path d="M220.969 829.031H235.031V833.719H220.969V829.031Z" fill="#64E1DC"/>
<path d="M239.719 829.031H253.781V833.719H239.719V829.031Z" fill="#00C8C8"/>
<path d="M202.219 838.406H216.281V843.094H202.219V838.406Z" fill="#64E1DC"/>
<path d="M220.969 838.406H235.031V843.094H220.969V838.406Z" fill="#64E1DC"/>
<path d="M239.719 838.406H253.781V843.094H239.719V838.406Z" fill="#00C8C8"/>
<path d="M202.219 847.781H216.281V852.469H202.219V847.781Z" fill="#64E1DC"/>
<path d="M220.969 847.781H235.031V852.469H220.969V847.781Z" fill="#64E1DC"/>
<path d="M204.562 782C201.04 782 198.281 785.896 197.664 791.375H202.44C202.902 788.375 204.093 786.688 204.562 786.688C205.032 786.688 206.223 788.375 206.685 791.375C206.797 792.099 206.906 792.836 206.906 793.719C206.906 798.255 205.146 800.75 204.562 800.75V805.438C208.57 805.438 211.594 800.4 211.594 793.719C211.594 792.911 211.546 792.129 211.461 791.375C210.844 785.896 208.085 782 204.562 782Z" fill="#676E74"/>
<path d="M235.031 793.719C235.031 800.422 231.984 805.438 228 805.438V800.75C228.563 800.75 230.344 798.265 230.344 793.719C230.344 792.828 230.25 792.078 230.109 791.375C229.641 788.375 228.469 786.688 228 786.688C227.531 786.688 226.359 788.375 225.891 791.375H221.11C221.719 785.89 224.484 782 228 782C231.516 782 234.281 785.89 234.89 791.375C234.984 792.125 235.031 792.922 235.031 793.719V793.719Z" fill="#676E74"/>
<path d="M258.492 791.375C257.875 785.896 254.96 782 251.438 782C247.915 782 245.156 785.896 244.539 791.375H249.315C249.777 788.375 250.968 786.688 251.438 786.688C251.907 786.688 253.098 788.375 253.56 791.375C253.672 792.099 253.781 792.836 253.781 793.719C253.781 798.255 252.021 800.75 251.438 800.75V805.438C255.445 805.438 258.625 800.4 258.625 793.719C258.625 792.911 258.577 792.129 258.492 791.375Z" fill="#474F54"/>
<path d="M235.031 793.719C235.031 800.422 231.984 805.438 228 805.438V800.75C228.563 800.75 230.344 798.265 230.344 793.719C230.344 792.828 230.25 792.078 230.109 791.375C229.641 788.375 228.469 786.688 228 786.688V782C231.516 782 234.281 785.89 234.89 791.375C234.984 792.125 235.031 792.922 235.031 793.719V793.719Z" fill="#474F54"/>
<path d="M228 819.656H235.031V824.344H228V819.656Z" fill="#00C8C8"/>
<path d="M228 829.031H235.031V833.719H228V829.031Z" fill="#00C8C8"/>
<path d="M228 838.406H235.031V843.094H228V838.406Z" fill="#00C8C8"/>
<path d="M228 847.781H235.031V852.469H228V847.781Z" fill="#00C8C8"/>
</g>
</g>
</g>
<defs>
<clipPath id="clip0_7_1431">
<rect width="300" height="1000" fill="white"/>
</clipPath>
</defs>
</svg>
